<svg width="266" height="16" viewBox="0 0 266 16" fill="none" xmlns="http://www.w3.org/2000/svg">
<path d="M0.00303667 8.0213C0.00303667 3.00342 4.34233 0.00303667 10.5652 0.00303667C13.5656 0.00303667 15.7596 0.441225 17.7528 1.01026L17.555 6.09509C16.2191 5.26132 13.6995 4.82312 11.3321 4.82312C7.84785 4.82312 5.6569 5.98554 5.6569 8.0426C5.6569 9.90491 7.5192 11.1312 10.6322 11.1312C12.035 11.1312 13.3709 10.8026 14.2472 10.2122L14.2259 9.09547H11.7276C11.2225 9.09547 10.2579 9.18372 9.7984 9.31457L9.84101 7.19056H19.612V13.3039C17.6189 15.0141 14.2868 16 10.4739 16C4.25104 16 0 13.0209 0 8.02434L0.00303667 8.0213Z" fill="#FFE048"/>
<path d="M20.7714 8C20.7714 2.80562 25.1107 0.00303667 31.0263 0.00303667C36.9418 0.00303667 41.2811 2.80867 41.2811 8C41.2811 13.1913 36.9418 15.997 31.0263 15.997C25.1107 15.997 20.7714 13.1913 20.7714 8ZM35.4325 8C35.4325 5.7208 33.6128 4.47318 31.0293 4.47318C28.4458 4.47318 26.6048 5.7208 26.6048 8C26.6048 10.2792 28.4245 11.5512 31.0293 11.5512C33.6341 11.5512 35.4325 10.2579 35.4325 8Z" fill="#FFE048"/>
<path d="M42.4405 8C42.4405 2.80562 46.7798 0.00303667 52.6953 0.00303667C58.6109 0.00303667 62.9502 2.80867 62.9502 8C62.9502 13.1913 58.6109 15.997 52.6953 15.997C46.7798 15.997 42.4405 13.1913 42.4405 8ZM57.0985 8C57.0985 5.7208 55.2788 4.47318 52.6953 4.47318C50.1118 4.47318 48.2708 5.7208 48.2708 8C48.2708 10.2792 50.0905 11.5512 52.6953 11.5512C55.3001 11.5512 57.0985 10.2579 57.0985 8Z" fill="#FFE048"/>
<path d="M65.1837 10.124V5.87295C65.1837 3.9437 64.8977 1.66451 64.5051 0.328638H74.8482C80.7212 0.328638 84.2267 3.02472 84.2267 7.99696C84.2267 12.9692 80.7212 15.6653 74.8482 15.6653H64.5051C64.922 14.3081 65.1837 12.0502 65.1837 10.121V10.124ZM74.3857 10.693C76.8384 10.693 78.3294 9.77406 78.3294 7.99696C78.3294 6.21986 76.8171 5.30087 74.3857 5.30087H70.9015V10.69H74.3857V10.693Z" fill="#FFE048"/>
<path d="M94.2777 10.1453L92.2632 5.87295C91.4964 3.9437 90.3796 1.68885 89.5033 0.328638H96.7334C96.7973 1.18372 96.9738 2.25789 97.4576 3.54812L99.5177 8.3682C99.8463 9.24458 100.087 9.96881 100.285 10.8665H100.525C100.744 9.88056 100.942 9.31153 101.27 8.3682L103.331 3.54812C103.769 2.25485 103.988 1.18067 104.076 0.328638H111.066C110.168 1.68581 109.073 3.9437 108.285 5.87295L106.291 10.124C105.525 12.0533 104.846 14.3081 104.669 15.6683H95.8813C95.6835 14.2442 95.005 11.965 94.2807 10.1453H94.2777Z" fill="#FFE048"/>
<path d="M112.593 10.124V5.87295C112.593 3.9437 112.332 1.66451 111.936 0.328638H119.014C118.597 1.66451 118.336 3.9437 118.336 5.87295V10.124C118.336 12.0533 118.576 14.3081 119.014 15.6683H111.936C112.353 14.3111 112.593 12.0533 112.593 10.124Z" fill="#FFE048"/>
<path d="M122.124 10.124V5.87295C122.124 3.9437 121.862 1.66451 121.467 0.328638H134.22C137.223 0.328638 139.633 1.51236 139.633 3.96501C139.633 6.2655 137.354 7.51616 134.527 7.51616H134.177V7.8022H134.902C138.036 7.8022 140.555 9.04983 140.555 11.7033C140.555 14.3568 137.993 15.6683 134.728 15.6683H121.473C121.89 14.3111 122.13 12.0533 122.13 10.124H122.124ZM132.379 6.79498C133.365 6.79498 134.089 6.42374 134.089 5.67821C134.089 4.93268 133.365 4.60403 132.403 4.60403H127.869V6.79498H132.382H132.379ZM132.838 11.2864C133.976 11.2864 134.768 10.8695 134.768 10.0145C134.768 9.15938 133.958 8.72119 132.817 8.72119H127.866V11.2834H132.841L132.838 11.2864Z" fill="#FFE048"/>
<path d="M142.959 10.124V5.87295C142.959 3.9437 142.673 1.66451 142.281 0.328638H159.02L159.787 5.82731C159.13 5.38912 157.639 5.12742 155.667 5.12742H148.677V6.90148H153.783C154.857 6.90148 155.886 6.85888 156.589 6.77064V9.24762C155.889 9.13807 154.857 9.09547 153.783 9.09547H148.677V10.8695H155.579C158.031 10.8695 159.565 10.4739 160.466 9.86231L159.501 15.6683H142.278C142.695 14.3111 142.956 12.0533 142.956 10.124H142.959Z" fill="#FFE048"/>
<path d="M161.388 14.5272L161.628 8.72119C163.84 10.407 167.236 11.2408 171.028 11.2408C173.176 11.2408 174.579 10.9791 174.579 10.2122C174.579 8.0213 161.607 10.8026 161.607 4.66793C161.607 1.36021 165.66 0 170.943 0C173.593 0 176.837 0.480789 178.83 1.20502V6.53024C176.989 5.47737 174.077 4.79878 171.162 4.79878C169.169 4.79878 167.547 5.06048 167.547 5.82731C167.547 8.3256 180.561 5.19132 180.561 11.2164C180.561 14.4359 176.946 15.9939 171.183 15.9939C168.402 15.9939 163.798 15.3153 161.388 14.5272Z" fill="#FFE048"/>
<path d="M187.086 8C187.086 2.47698 192.082 0.00303667 197.821 0.00303667C200.846 0.00303667 203.451 0.617726 205.118 1.36021L204.68 6.70673C203.542 5.7634 201.263 4.97527 198.676 4.97527C195.457 4.97527 192.892 6.0038 192.892 8C192.892 9.99619 195.609 11.0247 199.181 11.0247C201.856 11.0247 204.178 10.3005 205.776 9.14111V14.9684C203.694 15.5831 201.305 15.997 197.976 15.997C192.259 15.997 187.086 13.5443 187.086 8Z" fill="#FFE048"/>
<path d="M212.437 15.0323C210.048 15.0323 208.317 15.6227 207.486 15.997C207.903 14.6398 208.143 12.0533 208.143 10.124V5.87295C208.143 3.9437 207.881 1.66451 207.486 0.328638H214.564C214.147 1.66451 213.885 4.64663 213.885 6.57284V10.7569H219.122C221.094 10.7569 222.892 10.3857 223.921 9.83796L223.854 15.361C223.678 15.3823 222.409 15.997 220.854 15.997C217.655 15.997 216.097 15.0323 212.44 15.0323H212.437Z" fill="#FFE048"/>
<path d="M225.604 8.72119V5.87295C225.604 3.9437 225.342 1.68885 224.946 0.328638H232.003C231.611 1.68581 231.346 4.05325 231.346 5.98251V7.71395C231.346 9.68581 232.572 11.0673 234.611 11.0673C236.65 11.0673 237.876 9.68581 237.876 7.71395V5.98251C237.876 4.05325 237.611 1.68885 237.197 0.328638H244.275C243.859 1.68581 243.618 3.9437 243.618 5.87295V8.72119C243.618 13.3678 240.682 15.997 234.59 15.997C228.498 15.997 225.607 13.5869 225.607 8.72119H225.604Z" fill="#FFE048"/>
<path d="M247.248 10.124V5.87295C247.248 3.9437 246.987 1.66451 246.591 0.328638H259.344C262.348 0.328638 264.758 1.51236 264.758 3.96501C264.758 6.2655 262.479 7.51616 259.652 7.51616H259.302V7.8022H260.026C263.16 7.8022 265.68 9.04983 265.68 11.7033C265.68 14.3568 263.118 15.6683 259.852 15.6683H246.597C247.014 14.3111 247.255 12.0533 247.255 10.124H247.248ZM257.503 6.79498C258.489 6.79498 259.213 6.42374 259.213 5.67821C259.213 4.93268 258.489 4.60403 257.528 4.60403H252.994V6.79498H257.506H257.503ZM257.963 11.2864C259.101 11.2864 259.892 10.8695 259.892 10.0145C259.892 9.15938 259.083 8.72119 257.941 8.72119H252.991V11.2834H257.966L257.963 11.2864Z" fill="#FFE048"/>
</svg>
